<svg width="197" height="197" viewBox="0 0 197 197" fill="none" xmlns="http://www.w3.org/2000/svg">
<path d="M27.2757 80.4663L53.0901 91.5213C56.0125 85.6253 59.1378 79.8112 62.4661 74.079C65.7944 68.3468 69.3256 62.8602 73.0598 57.6194L53.8207 53.6887L27.2757 80.4663ZM64.7797 100.365L97.1695 133.039C106.424 128.781 115.11 123.949 123.228 118.545C131.345 113.14 137.921 107.899 142.954 102.822C156.104 89.556 165.765 75.9625 171.934 62.0414C178.104 48.1202 181.432 32.3976 181.919 14.8734C164.547 15.3647 148.961 18.7221 135.161 24.9457C121.36 31.1692 107.885 40.914 94.7342 54.18C89.7012 59.2571 84.5058 65.8901 79.1481 74.079C73.7904 82.2679 69.0009 91.03 64.7797 100.365ZM120.549 76.7813C117.302 73.5058 115.678 69.4523 115.678 64.6208C115.678 59.7894 117.302 55.7359 120.549 52.4604C123.796 49.1848 127.814 47.547 132.604 47.547C137.393 47.547 141.411 49.1848 144.658 52.4604C147.905 55.7359 149.529 59.7894 149.529 64.6208C149.529 69.4523 147.905 73.5058 144.658 76.7813C141.411 80.0569 137.393 81.6947 132.604 81.6947C127.814 81.6947 123.796 80.0569 120.549 76.7813ZM116.896 170.872L143.441 144.094L139.544 124.686C134.349 128.453 128.91 132.015 123.228 135.373C117.545 138.73 111.781 141.883 105.937 144.831L116.896 170.872ZM196.287 0.379028C197.749 22.6528 194.988 42.9612 188.007 61.3044C181.026 79.6475 169.499 96.926 153.426 113.14L152.939 113.631L152.451 114.123L157.809 141.146C158.296 143.603 158.174 145.977 157.444 148.27C156.713 150.563 155.455 152.61 153.669 154.412L112.025 196.667L91.3247 148.025L49.9242 106.261L1.70473 85.3797L43.5923 43.3707C45.3783 41.5691 47.4077 40.2999 49.6807 39.5629C51.9536 38.8259 54.3078 38.703 56.7431 39.1944L83.5317 44.599C83.6941 44.4352 83.8564 44.3124 84.0188 44.2305C84.1811 44.1486 84.3435 44.0258 84.5058 43.862C100.579 27.648 117.707 15.9789 135.891 8.85453C154.075 1.7302 174.207 -1.09497 196.287 0.379028ZM18.0214 135.987C23.7038 130.255 30.6445 127.348 38.8435 127.266C47.0424 127.184 53.9831 130.009 59.6655 135.741C65.3479 141.474 68.1486 148.475 68.0674 156.746C67.9862 165.017 65.1044 172.018 59.422 177.75C55.2007 182.009 48.6659 185.53 39.8176 188.314C30.9692 191.098 17.6967 193.719 0 196.175C2.43533 178.324 4.99242 164.894 7.67128 155.886C10.3501 146.878 13.8002 140.245 18.0214 135.987ZM28.2498 146.551C25.9768 149.007 23.9474 152.856 22.1615 158.097C20.3756 163.338 18.8332 170.053 17.5343 178.242C25.6521 176.931 32.3087 175.376 37.504 173.574C42.6994 171.772 46.5147 169.725 48.9501 167.432C52.0348 164.648 53.6178 161.168 53.6989 156.992C53.7801 152.815 52.3595 149.171 49.4371 146.059C46.3524 143.111 42.74 141.678 38.5999 141.76C34.4599 141.842 31.0098 143.439 28.2498 146.551Z" fill="#0D88F9"/>
</svg>
