<svg width="100" height="100" viewBox="0 0 100 100" fill="none" xmlns="http://www.w3.org/2000/svg">
<path d="M13.869 40.9151L26.995 46.5363C28.4809 43.5383 30.0701 40.582 31.7624 37.6673C33.4548 34.7526 35.2503 31.9628 37.1491 29.298L27.3665 27.2993L13.869 40.9151ZM32.9388 51.0332L49.4082 67.647C54.1138 65.4818 58.5304 63.0251 62.6581 60.277C66.7857 57.5288 70.1292 54.864 72.6883 52.2824C79.3751 45.537 84.2871 38.625 87.4241 31.5465C90.5611 24.4679 92.2535 16.4733 92.5011 7.56273C83.6679 7.81256 75.7428 9.51973 68.7257 12.6843C61.7087 15.8488 54.8568 20.8037 48.1699 27.5492C45.6108 30.1307 42.9691 33.5035 40.2448 37.6673C37.5205 41.8311 35.0852 46.2865 32.9388 51.0332ZM61.2959 39.0414C59.6449 37.3758 58.8193 35.3147 58.8193 32.8581C58.8193 30.4014 59.6449 28.3403 61.2959 26.6748C62.947 25.0092 64.9902 24.1765 67.4255 24.1765C69.8609 24.1765 71.9041 25.0092 73.5551 26.6748C75.2062 28.3403 76.0317 30.4014 76.0317 32.8581C76.0317 35.3147 75.2062 37.3758 73.5551 39.0414C71.9041 40.7069 69.8609 41.5397 67.4255 41.5397C64.9902 41.5397 62.947 40.7069 61.2959 39.0414ZM59.4385 86.8839L72.936 73.2681L70.9547 63.3998C68.313 65.3152 65.5474 67.1265 62.6581 68.8337C59.7687 70.5408 56.8381 72.1439 53.8661 73.6429L59.4385 86.8839ZM99.8071 0.192726C100.55 11.5184 99.1467 21.8447 95.5969 31.1717C92.0471 40.4987 86.1858 49.2844 78.013 57.5288L77.7654 57.7787L77.5177 58.0285L80.242 71.7692C80.4896 73.0183 80.4277 74.2258 80.0562 75.3917C79.6847 76.5576 79.0449 77.5985 78.1368 78.5146L56.9619 100L46.4363 75.2668L25.3852 54.0312L0.866811 43.4134L22.1656 22.0529C23.0737 21.1369 24.1056 20.4915 25.2614 20.1167C26.4171 19.742 27.6141 19.6795 28.8524 19.9293L42.4738 22.6775C42.5563 22.5942 42.6389 22.5317 42.7214 22.4901C42.804 22.4485 42.8865 22.386 42.9691 22.3027C51.1419 14.0583 59.8513 8.12484 69.0972 4.5023C78.3432 0.87976 88.5799 -0.556765 99.8071 0.192726ZM9.16343 69.1459C12.0528 66.2313 15.582 64.7531 19.7509 64.7114C23.9199 64.6698 27.449 66.1063 30.3384 69.021C33.2278 71.9357 34.6518 75.4958 34.6105 79.7013C34.5693 83.9068 33.1039 87.4668 30.2146 90.3815C28.0682 92.5467 24.7454 94.3372 20.2462 95.7529C15.7471 97.1686 8.99833 98.501 0 99.7502C1.2383 90.673 2.53852 83.8443 3.90065 79.2641C5.26278 74.6839 7.01704 71.3111 9.16343 69.1459ZM14.3643 74.5173C13.2086 75.7664 12.1766 77.7235 11.2685 80.3883C10.3605 83.0532 9.5762 86.4675 8.91577 90.6314C13.0434 89.9651 16.4281 89.174 19.0698 88.258C21.7116 87.3419 23.6516 86.301 24.8899 85.1351C26.4584 83.7194 27.2633 81.9498 27.3046 79.8262C27.3458 77.7026 26.6235 75.8497 25.1375 74.2675C23.569 72.7685 21.7322 72.0398 19.6271 72.0815C17.522 72.1231 15.7677 72.935 14.3643 74.5173Z" fill="#F9FBFC"/>
</svg>
